<svg xmlns="http://www.w3.org/2000/svg" viewBox="0 0 451.98 308.13"><defs><style>.cls-1{isolation:isolate;}.cls-2{fill:#d1d1d1;}.cls-19,.cls-2,.cls-22,.cls-4,.cls-8,.cls-9{mix-blend-mode:multiply;}.cls-3{fill:#646d78;}.cls-4{fill:#bdbdbd;}.cls-5{fill:#ededed;}.cls-6{fill:#cdd0d8;}.cls-7{fill:#ffce54;}.cls-21,.cls-8{fill:#e3e3e3;}.cls-9{fill:#bfbfbf;}.cls-10{fill:#4a4a4a;}.cls-11{fill:#999;}.cls-12{fill:#a9b2bd;}.cls-13{fill:#4f4f4f;}.cls-14{fill:#5e5e5e;}.cls-15{fill:#575757;}.cls-16{fill:#141414;}.cls-16,.cls-18{mix-blend-mode:screen;}.cls-17{fill:#545454;}.cls-18{fill:#0f0f0f;}.cls-19{fill:#f0f0f0;}.cls-20{fill:#404040;}.cls-22{fill:#504132;opacity:0.2;}.cls-23{fill:#437e8c;}.cls-24{fill:#5e838c;}.cls-25{fill:#e1e0e0;}.cls-26{fill:#f7d780;}.cls-27{fill:#f7dbb9;}</style></defs><g class="cls-1"><g id="Layer_1" data-name="Layer 1"><path class="cls-2" d="M455,240.74a18.31,18.31,0,0,0,.85-1.65,19.48,19.48,0,0,0,1.21-3.57c.14-.63.25-1.27.34-1.92l.76-6.1h0l1.36-10.83L469.89,134a13.51,13.51,0,0,0-.2-4.5,12.6,12.6,0,0,0,9.9-10.76l.61-4.79-.64,5.08.7.08a6,6,0,0,0,1.49-11.83l-.71-.09-.06.55A12.61,12.61,0,0,0,470,93.69l-26-3.26,5.42-43.17L303.67,29l-5.42,43.17-26-3.26a12.61,12.61,0,0,0-14.08,10.93l.07-.54-.55-.07,3.59-28.58a8.66,8.66,0,1,0-4.52-8.71l-5,40.06a6,6,0,0,0-.85,2.38h0A6,6,0,0,0,256.09,91l.71.09,0-.28a12.6,12.6,0,0,0,6.94,12.87,13.25,13.25,0,0,0-1.31,4.32L250,207.56a18.71,18.71,0,0,0,.14,5.7,19.47,19.47,0,0,0,1,3.55,16.68,16.68,0,0,0,.75,1.67,18.92,18.92,0,0,0,7.1,7.64q.41.25.84.48a18.79,18.79,0,0,0,6.62,2.13l169.8,21.32a18.7,18.7,0,0,0,5.7-.14,18.29,18.29,0,0,0,3.55-1,19.55,19.55,0,0,0,3.26-1.65,16.71,16.71,0,0,0,1.49-1A19,19,0,0,0,455,240.74Z" transform="translate(-34.99 -25.97)"/><path class="cls-3" d="M454.61,131.9,256.86,107.07A12.61,12.61,0,0,1,245.92,93l1.39-11a12.6,12.6,0,0,1,14.08-10.94L459.13,95.88A12.61,12.61,0,0,1,470.07,110l-1.38,11A12.61,12.61,0,0,1,454.61,131.9Z" transform="translate(-34.99 -25.97)"/><path class="cls-4" d="M437.83,116.55,276.91,96.34a5,5,0,0,1-4.34-5.59h0a5,5,0,0,1,5.59-4.34l160.92,20.21a5,5,0,0,1,4.34,5.58h0A5,5,0,0,1,437.83,116.55Z" transform="translate(-34.99 -25.97)"/><rect class="cls-5" x="288.04" y="40.04" width="146.97" height="66.67" transform="translate(-23.03 -70.44) rotate(7.16)"/><path class="cls-6" d="M360.61,55.9l-55.75-7a1.78,1.78,0,0,1-1.54-2l0-.19a1.77,1.77,0,0,1,2-1.54l55.75,7a1.78,1.78,0,0,1,1.54,2l0,.19A1.77,1.77,0,0,1,360.61,55.9Z" transform="translate(-34.99 -25.97)"/><rect class="cls-6" x="330.2" y="27.83" width="3.74" height="59.73" rx="1.77" transform="translate(198.46 354.02) rotate(-82.84)"/><path class="cls-6" d="M420.22,80.74,302.82,66a1.78,1.78,0,0,1-1.54-2l0-.19a1.77,1.77,0,0,1,2-1.54L420.69,77a1.76,1.76,0,0,1,1.53,2l0,.19A1.78,1.78,0,0,1,420.22,80.74Z" transform="translate(-34.99 -25.97)"/><rect class="cls-6" x="358.62" y="20.68" width="3.74" height="121.87" rx="1.77" transform="translate(199.6 403.15) rotate(-82.84)"/><path class="cls-6" d="M417.72,100.69,300.31,85.94a1.76,1.76,0,0,1-1.53-2l0-.2a1.76,1.76,0,0,1,2-1.53L418.18,97a1.78,1.78,0,0,1,1.54,2l0,.19A1.77,1.77,0,0,1,417.72,100.69Z" transform="translate(-34.99 -25.97)"/><rect class="cls-6" x="356.11" y="40.63" width="3.74" height="121.87" rx="1.77" transform="translate(177.62 418.13) rotate(-82.84)"/><path class="cls-7" d="M425.31,252.25,255.5,230.92a19,19,0,0,1-16.45-21.17l12.5-99.57a13.63,13.63,0,0,1,15.22-11.82L447.17,121A13.62,13.62,0,0,1,459,136.23l-12.5,99.57A19,19,0,0,1,425.31,252.25Z" transform="translate(-34.99 -25.97)"/><path class="cls-8" d="M245.9,155.18l-6.08,48.46c-1.12,8.93,6.39,17.22,16.78,18.53l169.81,21.32c10.38,1.31,19.72-4.87,20.84-13.8l6.08-48.46Z" transform="translate(-34.99 -25.97)"/><path class="cls-9" d="M426.41,243.49,256.6,222.17c-10.17-1.28-17.57-9.26-16.82-18h0l-.7,5.55a19,19,0,0,0,16.45,21.17l169.81,21.33a19,19,0,0,0,21.17-16.45l.7-5.56h0C445.71,238.86,436.58,244.77,426.41,243.49Z" transform="translate(-34.99 -25.97)"/><rect class="cls-10" x="320.62" y="122.46" width="49.92" height="155.89" rx="9.81" transform="translate(68.69 492.34) rotate(-82.84)"/><path class="cls-11" d="M280.07,172.66h7.2a1.15,1.15,0,0,1,1.15,1.15V181a1.14,1.14,0,0,1-1.14,1.14h-7.2a1.15,1.15,0,0,1-1.15-1.15v-7.2a1.15,1.15,0,0,1,1.15-1.15Z" transform="translate(-10.68 -59.93) rotate(7.16)"/><path class="cls-11" d="M294.24,174.44h7.2a1.14,1.14,0,0,1,1.14,1.14v7.2a1.14,1.14,0,0,1-1.14,1.14h-7.2a1.15,1.15,0,0,1-1.15-1.15v-7.2a1.15,1.15,0,0,1,1.15-1.15Z" transform="translate(-10.35 -61.68) rotate(7.16)"/><path class="cls-11" d="M308.08,176.17h7.2a1.15,1.15,0,0,1,1.15,1.15v7.2a1.14,1.14,0,0,1-1.14,1.14h-7.2a1.15,1.15,0,0,1-1.15-1.15v-7.2a1.15,1.15,0,0,1,1.15-1.15Z" transform="translate(-10.02 -63.4) rotate(7.16)"/><path class="cls-11" d="M322.25,178h7.2a1.15,1.15,0,0,1,1.15,1.15v7.2a1.14,1.14,0,0,1-1.14,1.14h-7.2a1.15,1.15,0,0,1-1.15-1.15v-7.2a1.15,1.15,0,0,1,1.15-1.15Z" transform="translate(-9.69 -65.14) rotate(7.16)"/><rect class="cls-11" x="335.34" y="179.74" width="9.49" height="9.49" rx="1.15" transform="translate(-9.35 -66.91) rotate(7.16)"/><path class="cls-11" d="M350.66,181.52h7.2a1.14,1.14,0,0,1,1.14,1.14v7.2a1.14,1.14,0,0,1-1.14,1.14h-7.2a1.15,1.15,0,0,1-1.15-1.15v-7.2a1.15,1.15,0,0,1,1.15-1.15Z" transform="translate(-9.02 -68.66) rotate(7.16)"/><path class="cls-11" d="M364.5,183.26h7.2a1.15,1.15,0,0,1,1.15,1.15v7.2a1.15,1.15,0,0,1-1.15,1.15h-7.2a1.14,1.14,0,0,1-1.14-1.14v-7.2a1.15,1.15,0,0,1,1.15-1.15Z" transform="translate(-8.7 -70.37) rotate(7.16)"/><rect class="cls-11" x="377.52" y="185.04" width="9.49" height="9.49" rx="1.15" transform="translate(-8.36 -72.12) rotate(7.16)"/><path class="cls-11" d="M393.47,186.9h7.2a1.14,1.14,0,0,1,1.14,1.14v7.2a1.15,1.15,0,0,1-1.15,1.15h-7.2a1.14,1.14,0,0,1-1.14-1.14V188a1.14,1.14,0,0,1,1.14-1.14Z" transform="translate(-8.02 -73.95) rotate(7.16)"/><path class="cls-11" d="M407.64,188.67h7.2a1.15,1.15,0,0,1,1.15,1.15V197a1.15,1.15,0,0,1-1.15,1.15h-7.2a1.14,1.14,0,0,1-1.14-1.14v-7.2a1.15,1.15,0,0,1,1.15-1.15Z" transform="translate(-7.69 -75.7) rotate(7.16)"/><path class="cls-11" d="M276.67,199.75h7.2A1.15,1.15,0,0,1,285,200.9v7.2a1.14,1.14,0,0,1-1.14,1.14h-7.2a1.14,1.14,0,0,1-1.14-1.14v-7.2a1.15,1.15,0,0,1,1.15-1.15Z" transform="translate(-7.33 -59.3) rotate(7.16)"/><path class="cls-11" d="M290.84,201.53H298a1.15,1.15,0,0,1,1.15,1.15v7.2A1.14,1.14,0,0,1,298,211h-7.2a1.15,1.15,0,0,1-1.15-1.15v-7.2a1.14,1.14,0,0,1,1.14-1.14Z" transform="translate(-7 -61.05) rotate(7.16)"/><path class="cls-11" d="M304.68,203.27h7.2a1.14,1.14,0,0,1,1.14,1.14v7.2a1.14,1.14,0,0,1-1.14,1.14h-7.2a1.14,1.14,0,0,1-1.14-1.14v-7.2a1.15,1.15,0,0,1,1.15-1.15Z" transform="translate(-6.67 -62.77) rotate(7.16)"/><path class="cls-11" d="M318.85,205.05h7.2a1.14,1.14,0,0,1,1.14,1.14v7.2a1.15,1.15,0,0,1-1.15,1.15h-7.2a1.15,1.15,0,0,1-1.15-1.15v-7.2a1.15,1.15,0,0,1,1.15-1.15Z" transform="translate(-6.34 -64.51) rotate(7.16)"/><path class="cls-11" d="M333.09,206.84h7.2a1.15,1.15,0,0,1,1.15,1.15v7.2a1.15,1.15,0,0,1-1.15,1.15h-7.2a1.14,1.14,0,0,1-1.14-1.14V208a1.15,1.15,0,0,1,1.15-1.15Z" transform="translate(-6.01 -66.27) rotate(7.16)"/><rect class="cls-11" x="346.11" y="208.62" width="9.49" height="9.49" rx="1.15" transform="translate(-5.67 -68.03) rotate(7.16)"/><path class="cls-11" d="M361.09,210.36h7.2a1.14,1.14,0,0,1,1.14,1.14v7.2a1.15,1.15,0,0,1-1.15,1.15h-7.2a1.14,1.14,0,0,1-1.14-1.14v-7.2a1.14,1.14,0,0,1,1.14-1.14Z" transform="translate(-5.35 -69.73) rotate(7.16)"/><path class="cls-11" d="M375.26,212.14h7.2a1.15,1.15,0,0,1,1.15,1.15v7.2a1.15,1.15,0,0,1-1.15,1.15h-7.2a1.14,1.14,0,0,1-1.14-1.14v-7.2A1.14,1.14,0,0,1,375.26,212.14Z" transform="translate(-5.02 -71.48) rotate(7.16)"/><rect class="cls-11" x="388.92" y="213.99" width="9.49" height="9.49" rx="1.14" transform="translate(-4.67 -73.31) rotate(7.16)"/><path class="cls-11" d="M404.23,215.77h7.2a1.14,1.14,0,0,1,1.14,1.14v7.2a1.14,1.14,0,0,1-1.14,1.14h-7.2a1.15,1.15,0,0,1-1.15-1.15v-7.2a1.14,1.14,0,0,1,1.14-1.14Z" transform="translate(-4.34 -75.07) rotate(7.16)"/><path class="cls-11" d="M285.11,187.57h7.2a1.14,1.14,0,0,1,1.14,1.14v7.2a1.15,1.15,0,0,1-1.15,1.15h-7.2a1.14,1.14,0,0,1-1.14-1.14v-7.2A1.15,1.15,0,0,1,285.11,187.57Z" transform="translate(-8.77 -60.45) rotate(7.16)"/><path class="cls-11" d="M299.28,189.35h7.2a1.15,1.15,0,0,1,1.15,1.15v7.2a1.15,1.15,0,0,1-1.15,1.15h-7.2a1.14,1.14,0,0,1-1.14-1.14v-7.2A1.15,1.15,0,0,1,299.28,189.35Z" transform="translate(-8.45 -62.19) rotate(7.16)"/><path class="cls-11" d="M313.12,191.09h7.2a1.14,1.14,0,0,1,1.14,1.14v7.2a1.15,1.15,0,0,1-1.15,1.15h-7.2a1.14,1.14,0,0,1-1.14-1.14v-7.2a1.14,1.14,0,0,1,1.14-1.14Z" transform="translate(-8.13 -63.9) rotate(7.16)"/><path class="cls-11" d="M327.29,192.87h7.2a1.14,1.14,0,0,1,1.14,1.14v7.2a1.15,1.15,0,0,1-1.15,1.15h-7.2a1.14,1.14,0,0,1-1.14-1.14V194a1.14,1.14,0,0,1,1.14-1.14Z" transform="translate(-7.79 -65.66) rotate(7.16)"/><rect class="cls-11" x="340.38" y="194.66" width="9.49" height="9.49" rx="1.14" transform="translate(-7.46 -67.42) rotate(7.16)"/><path class="cls-11" d="M355.7,196.44h7.2a1.15,1.15,0,0,1,1.15,1.15v7.2a1.15,1.15,0,0,1-1.15,1.15h-7.2a1.14,1.14,0,0,1-1.14-1.14v-7.2a1.14,1.14,0,0,1,1.14-1.14Z" transform="translate(-7.13 -69.17) rotate(7.16)"/><path class="cls-11" d="M369.54,198.17h7.2a1.14,1.14,0,0,1,1.14,1.14v7.2a1.14,1.14,0,0,1-1.14,1.14h-7.2a1.15,1.15,0,0,1-1.15-1.15v-7.2a1.15,1.15,0,0,1,1.15-1.15Z" transform="translate(-6.8 -70.88) rotate(7.16)"/><rect class="cls-11" x="382.56" y="199.95" width="9.49" height="9.49" rx="1.14" transform="translate(-6.47 -72.63) rotate(7.16)"/><path class="cls-11" d="M398.5,201.81h7.2a1.15,1.15,0,0,1,1.15,1.15v7.2a1.14,1.14,0,0,1-1.14,1.14h-7.2a1.15,1.15,0,0,1-1.15-1.15V203a1.15,1.15,0,0,1,1.15-1.15Z" transform="translate(-6.12 -74.46) rotate(7.16)"/><path class="cls-11" d="M263.58,172.15a4.47,4.47,0,1,1-3.88-5A4.48,4.48,0,0,1,263.58,172.15Z" transform="translate(-34.99 -25.97)"/><path class="cls-11" d="M442.09,194.56a4.47,4.47,0,1,1-3.88-5A4.46,4.46,0,0,1,442.09,194.56Z" transform="translate(-34.99 -25.97)"/><rect class="cls-12" x="245.76" y="99.34" width="224.51" height="4" transform="translate(-19.57 -69.79) rotate(7.16)"/><path class="cls-8" d="M355.55,137.92c32.61,4.1,60.62-5.11,62.56-20.55L300,102.54C298.07,118,322.93,133.83,355.55,137.92Z" transform="translate(-34.99 -25.97)"/><path class="cls-11" d="M469.36,121.34l-.71-.09,1.49-11.84.7.09a6,6,0,0,1,5.18,6.66h0A6,6,0,0,1,469.36,121.34Z" transform="translate(-34.99 -25.97)"/><path class="cls-11" d="M245.19,93.19l.7.09,1.49-11.84-.71-.09A6,6,0,0,0,240,86.53h0A6,6,0,0,0,245.19,93.19Z" transform="translate(-34.99 -25.97)"/><rect class="cls-11" x="243.17" y="44.26" width="5.57" height="43.38" transform="translate(-24.86 -56.1) rotate(7.16)"/><path class="cls-11" d="M263.11,46.25a8.67,8.67,0,1,1-7.52-9.69A8.68,8.68,0,0,1,263.11,46.25Z" transform="translate(-34.99 -25.97)"/><path class="cls-8" d="M190.12,31.3a21.11,21.11,0,0,0-15.67,7v-1a4.83,4.83,0,0,0-4.83-4.82H166.3a4.82,4.82,0,0,0-4.82,4.83v.42c-8.9-.43-18.21-.67-27.91-.66-9.5,0-18.62.28-27.36.72v-.41a4.82,4.82,0,0,0-4.83-4.82H98.06a4.84,4.84,0,0,0-4.82,4.83v1.2l-1.6.11A21.18,21.18,0,0,0,54.57,51.46a9.33,9.33,0,0,0-9,9.35l.13,107.86A9.37,9.37,0,0,0,55.08,178h0l14.35,0a9.36,9.36,0,0,0,9.34-9.36l0-45A6.87,6.87,0,0,1,85,116.81v.62a.87.87,0,0,0,.88.87h1.2a.84.84,0,0,0,.67-.33v9.25a15.33,15.33,0,0,0,15.34,15.3l61.73-.08a15.34,15.34,0,0,0,15.3-15.34l-.07-55.92A21.22,21.22,0,1,0,190.12,31.3ZM76.25,123.66l0,45a6.87,6.87,0,0,1-6.86,6.88l-14.35,0h0a6.88,6.88,0,0,1-6.87-6.87L48.07,60.81a6.86,6.86,0,0,1,6.51-6.87,21.19,21.19,0,0,0,33.1,16.25l0,43a.86.86,0,0,0-.66-.32H85.86a.87.87,0,0,0-.87.87v.59A9.35,9.35,0,0,0,76.25,123.66Z" transform="translate(-34.99 -25.97)"/><path class="cls-13" d="M49.66,172.68a9.36,9.36,0,0,1-9.36-9.34L40.17,55.48a9.35,9.35,0,0,1,9.34-9.36l20.8,0v2.48l-20.8,0a6.86,6.86,0,0,0-6.86,6.88l.13,107.86a6.88,6.88,0,0,0,6.88,6.86H64a6.9,6.9,0,0,0,6.87-6.89l-.06-45A9.36,9.36,0,0,1,80.16,109h2.15v2.48H80.16a6.88,6.88,0,0,0-6.86,6.89l.06,45A9.36,9.36,0,0,1,64,172.66l-14.34,0Z" transform="translate(-34.99 -25.97)"/><path class="cls-13" d="M92.42,41.85h69.84a15.32,15.32,0,0,1,15.32,15.32V118.9a15.32,15.32,0,0,1-15.32,15.32H92.42a13.08,13.08,0,0,1-13.08-13.08V54.93A13.08,13.08,0,0,1,92.42,41.85Z" transform="matrix(0, 1, -1, 0, 181.35, -66.51)"/><path class="cls-14" d="M95.36,44.53h66.21A7.47,7.47,0,0,1,169,52v69.84a9.71,9.71,0,0,1-9.71,9.71H97.6a9.71,9.71,0,0,1-9.71-9.71V52a7.47,7.47,0,0,1,7.47-7.47Z" transform="translate(-35.1 -25.81) rotate(-0.07)"/><path class="cls-15" d="M87.87,77.75l.06,44.14a9.71,9.71,0,0,0,9.72,9.7l61.73-.08a9.71,9.71,0,0,0,9.7-9.73L169,77.64Z" transform="translate(-34.99 -25.97)"/><path class="cls-10" d="M100.75,46.53l0,16.94A7.59,7.59,0,0,0,108.36,71L148.53,71a7.6,7.6,0,0,0,7.57-7.59l0-16.94a8,8,0,0,0-.28-2L101,44.56A7.15,7.15,0,0,0,100.75,46.53Z" transform="translate(-34.99 -25.97)"/><circle class="cls-10" cx="127.29" cy="102.14" r="21.14" transform="translate(-69.94 93.95) rotate(-45)"/><path class="cls-16" d="M135.3,102.13a8,8,0,1,1-8-8A8,8,0,0,1,135.3,102.13Z" transform="translate(-34.99 -25.97)"/><path class="cls-17" d="M130.42,85.57a3.16,3.16,0,1,1-3.16-3.15A3.16,3.16,0,0,1,130.42,85.57Z" transform="translate(-34.99 -25.97)"/><path class="cls-17" d="M122.42,88.2A3.16,3.16,0,1,1,119.25,85,3.16,3.16,0,0,1,122.42,88.2Z" transform="translate(-34.99 -25.97)"/><path class="cls-17" d="M116.9,94.15A3.16,3.16,0,1,1,113.74,91,3.16,3.16,0,0,1,116.9,94.15Z" transform="translate(-34.99 -25.97)"/><path class="cls-17" d="M132.43,88.18A3.16,3.16,0,1,0,135.58,85,3.16,3.16,0,0,0,132.43,88.18Z" transform="translate(-34.99 -25.97)"/><path class="cls-17" d="M138,94.12A3.16,3.16,0,1,0,141.12,91,3.17,3.17,0,0,0,138,94.12Z" transform="translate(-34.99 -25.97)"/><path class="cls-17" d="M112.17,107.48a3.16,3.16,0,1,1-1.6,4.17A3.16,3.16,0,0,1,112.17,107.48Z" transform="translate(-34.99 -25.97)"/><path class="cls-17" d="M118,113.74a3.16,3.16,0,1,1-1.6,4.17A3.16,3.16,0,0,1,118,113.74Z" transform="translate(-34.99 -25.97)"/><path class="cls-17" d="M126.32,116.2a3.16,3.16,0,1,1-1.6,4.16A3.16,3.16,0,0,1,126.32,116.2Z" transform="translate(-34.99 -25.97)"/><path class="cls-17" d="M114,102.16A3.16,3.16,0,1,1,110.81,99,3.15,3.15,0,0,1,114,102.16Z" transform="translate(-34.99 -25.97)"/><path class="cls-14" d="M146.51,121.57l-9.7-8a3.38,3.38,0,0,1-.45-4.77h0a3.39,3.39,0,0,1,4.77-.46l9.7,8Z" transform="translate(-34.99 -25.97)"/><circle class="cls-14" cx="70.31" cy="47.33" r="21.22" transform="translate(-49.43 20.37) rotate(-33.28)"/><circle class="cls-18" cx="70.31" cy="47.33" r="16.98" transform="matrix(0.96, -0.28, 0.28, 0.96, -45.38, -4.56)"/><circle class="cls-14" cx="184.72" cy="47.19" r="21.22" transform="translate(5.59 146) rotate(-55.21)"/><circle class="cls-18" cx="185.15" cy="47.19" r="16.98" transform="translate(-14.13 118.77) rotate(-45)"/><path class="cls-15" d="M182.79,59.69a485.74,485.74,0,0,1-54.89,3.13,484.91,484.91,0,0,1-54.14-3,15.24,15.24,0,0,1-9.94-3.7,12.1,12.1,0,0,1-4.13-9h0c0-7,6.28-12.71,14-12.72,16.35-1.62,34.58-2.69,54.41-2.72s38.21,1,54.62,2.58A15.28,15.28,0,0,1,192.7,38a12.1,12.1,0,0,1,4.13,9h0C196.83,54,190.55,59.68,182.79,59.69Z" transform="translate(-34.99 -25.97)"/><path class="cls-19" d="M175.17,55.66c-13.93,1.26-29.78,2.12-47.22,2.14-17.18,0-32.81-.82-46.58-2a15.57,15.57,0,0,1-8.55-2.51,7.59,7.59,0,0,1-3.54-6.08h0c0-4.74,5.4-8.6,12.07-8.61,14.07-1.1,29.75-1.83,46.81-1.86s32.87.68,47,1.74A15.53,15.53,0,0,1,183.69,41a7.58,7.58,0,0,1,3.55,6.08h0C187.25,51.79,181.84,55.65,175.17,55.66Z" transform="translate(-34.99 -25.97)"/><rect class="cls-14" x="87.85" y="55.31" width="12.97" height="14.26" rx="4.83" transform="translate(-35.07 -25.85) rotate(-0.07)"/><rect class="cls-14" x="87.82" y="27.19" width="12.97" height="14.26" rx="4.83" transform="translate(-35.03 -25.85) rotate(-0.07)"/><path class="cls-14" d="M160.92,55.23h3.32a4.82,4.82,0,0,1,4.82,4.82v4.61a4.83,4.83,0,0,1-4.83,4.83h-3.32a4.82,4.82,0,0,1-4.82-4.82V60.05A4.83,4.83,0,0,1,160.92,55.23Z" transform="translate(-35.07 -25.76) rotate(-0.07)"/><path class="cls-14" d="M160.88,27.1h3.32A4.82,4.82,0,0,1,169,31.92v4.61a4.83,4.83,0,0,1-4.83,4.83h-3.32a4.82,4.82,0,0,1-4.82-4.82V31.92A4.82,4.82,0,0,1,160.88,27.1Z" transform="translate(-35.03 -25.77) rotate(-0.07)"/><path class="cls-14" d="M121.48,130.29c-10.59,0-20.44,0-22.91-.16-6.52-.4-8.39-7.79-8.46-8.1a.84.84,0,0,1,0-.27l0-41.62a1.13,1.13,0,0,1,2.26,0l0,41.48c.24.84,1.91,6,6.38,6.27,5.66.34,52.73,0,53.2,0h0a1.13,1.13,0,0,1,0,2.25C150.82,130.18,135.5,130.28,121.48,130.29Z" transform="translate(-34.99 -25.97)"/><path class="cls-20" d="M119.92,135.78H98c-13.66-1.2-14.29-14.52-14.3-14.66L83.6,73.54a.78.78,0,0,1,1.56,0l.06,47.56c0,.47.6,12.06,12.81,13.13,13.48,0,60.8-.08,61.28-.08h0a.78.78,0,0,1,0,1.56Z" transform="translate(-34.99 -25.97)"/><rect class="cls-13" x="79.56" y="107.54" width="2.95" height="5.44" rx="0.87" transform="translate(-35.13 -25.87) rotate(-0.07)"/><path class="cls-8" d="M175.65,160.22l-44.07,15.12a4.48,4.48,0,0,0-5.39.77l-1.58,1.62L112.2,182a4.49,4.49,0,0,0-2.8,5.65L57.89,195a4.48,4.48,0,0,0-3.81,5.08L58,227.43,38.81,240.62a4.48,4.48,0,0,0-1.16,6.24l29.14,42.36L68,297.9a4.48,4.48,0,0,0,5.08,3.81l2.07-.29,18.49,26.87a4.48,4.48,0,0,0,6.24,1.15l47.53-32.69,2.8,2.72a4.48,4.48,0,0,0,6.35-.08l27.31-28,26.73-9.17a4.5,4.5,0,0,0,2.8-5.71L181.35,163A4.49,4.49,0,0,0,175.65,160.22Z" transform="translate(-34.99 -25.97)"/><rect class="cls-21" x="121.52" y="172.05" width="76.06" height="107.81" rx="4.49" transform="translate(-99.69 38.04) rotate(-18.94)"/><path class="cls-6" d="M177.23,179.27,116.93,200a.69.69,0,0,1-.87-.43h0a.68.68,0,0,1,.42-.87L176.78,178a.7.7,0,0,1,.88.43h0A.69.69,0,0,1,177.23,179.27Z" transform="translate(-34.99 -25.97)"/><path class="cls-6" d="M190.21,217.11l-60.3,20.69a.69.69,0,0,1-.87-.43h0a.69.69,0,0,1,.43-.87l60.3-20.69a.68.68,0,0,1,.87.42h0A.7.7,0,0,1,190.21,217.11Z" transform="translate(-34.99 -25.97)"/><path class="cls-6" d="M191.4,220.58l-60.3,20.68a.67.67,0,0,1-.87-.42h0a.7.7,0,0,1,.43-.88L191,219.27a.69.69,0,0,1,.87.43h0A.7.7,0,0,1,191.4,220.58Z" transform="translate(-34.99 -25.97)"/><path class="cls-6" d="M192.62,224.12l-60.3,20.69a.69.69,0,0,1-.87-.43h0a.68.68,0,0,1,.42-.87l60.3-20.69a.7.7,0,0,1,.88.43h0A.69.69,0,0,1,192.62,224.12Z" transform="translate(-34.99 -25.97)"/><path class="cls-6" d="M193.8,227.55l-60.3,20.69a.7.7,0,0,1-.88-.43h0a.69.69,0,0,1,.43-.87l60.3-20.69a.69.69,0,0,1,.87.43h0A.68.68,0,0,1,193.8,227.55Z" transform="translate(-34.99 -25.97)"/><path class="cls-6" d="M195,231l-60.3,20.69a.69.69,0,0,1-.87-.43h0a.69.69,0,0,1,.43-.87l60.3-20.69a.69.69,0,0,1,.87.43h0A.69.69,0,0,1,195,231Z" transform="translate(-34.99 -25.97)"/><path class="cls-6" d="M196.19,234.53l-60.3,20.69a.69.69,0,0,1-.87-.43h0a.67.67,0,0,1,.42-.87l60.3-20.69a.69.69,0,0,1,.88.42h0A.7.7,0,0,1,196.19,234.53Z" transform="translate(-34.99 -25.97)"/><path class="cls-6" d="M197.36,238l-60.29,20.69a.7.7,0,0,1-.88-.43h0a.7.7,0,0,1,.43-.88l60.3-20.68a.67.67,0,0,1,.87.42h0A.69.69,0,0,1,197.36,238Z" transform="translate(-34.99 -25.97)"/><path class="cls-6" d="M178.51,183l-60.3,20.69a.69.69,0,0,1-.87-.43h0a.67.67,0,0,1,.42-.87l60.3-20.69a.69.69,0,0,1,.88.42h0A.7.7,0,0,1,178.51,183Z" transform="translate(-34.99 -25.97)"/><path class="cls-6" d="M179.91,187.08l-60.3,20.68a.69.69,0,0,1-.88-.42h0a.7.7,0,0,1,.43-.88l60.3-20.68a.67.67,0,0,1,.87.42h0A.69.69,0,0,1,179.91,187.08Z" transform="translate(-34.99 -25.97)"/><path class="cls-6" d="M181.19,190.8l-60.3,20.69a.7.7,0,0,1-.88-.43h0a.69.69,0,0,1,.43-.87l60.3-20.69a.69.69,0,0,1,.87.43h0A.68.68,0,0,1,181.19,190.8Z" transform="translate(-34.99 -25.97)"/><path class="cls-6" d="M184.45,200.32,124.15,221a.69.69,0,0,1-.87-.43h0a.69.69,0,0,1,.43-.87L184,199a.69.69,0,0,1,.88.42h0A.7.7,0,0,1,184.45,200.32Z" transform="translate(-34.99 -25.97)"/><path class="cls-6" d="M185.85,204.4l-60.3,20.69a.69.69,0,0,1-.87-.43h0a.68.68,0,0,1,.43-.87L185.4,203.1a.69.69,0,0,1,.88.42h0A.7.7,0,0,1,185.85,204.4Z" transform="translate(-34.99 -25.97)"/><path class="cls-6" d="M187.13,208.12l-60.3,20.69a.69.69,0,0,1-.87-.43h0a.67.67,0,0,1,.42-.87l60.3-20.69a.7.7,0,0,1,.88.43h0A.69.69,0,0,1,187.13,208.12Z" transform="translate(-34.99 -25.97)"/><rect class="cls-21" x="57.09" y="215.98" width="76.06" height="107.81" rx="4.49" transform="translate(-171.2 75.47) rotate(-34.52)"/><path class="cls-6" d="M99.61,220.17,47.09,256.3a.69.69,0,0,1-1-.18h0a.67.67,0,0,1,.18-1L98.83,219a.68.68,0,0,1,1,.17h0A.69.69,0,0,1,99.61,220.17Z" transform="translate(-34.99 -25.97)"/><path class="cls-6" d="M122.28,253.12,69.76,289.25a.69.69,0,0,1-1-.17h0a.68.68,0,0,1,.18-1L121.5,252a.69.69,0,0,1,1,.18h0A.69.69,0,0,1,122.28,253.12Z" transform="translate(-34.99 -25.97)"/><path class="cls-6" d="M124.36,256.14,71.83,292.28a.69.69,0,0,1-1-.18h0a.69.69,0,0,1,.17-1L123.58,255a.69.69,0,0,1,1,.18h0A.68.68,0,0,1,124.36,256.14Z" transform="translate(-34.99 -25.97)"/><path class="cls-6" d="M126.48,259.23,74,295.36a.69.69,0,0,1-1-.17h0a.7.7,0,0,1,.18-1L125.7,258.1a.69.69,0,0,1,1,.18h0A.69.69,0,0,1,126.48,259.23Z" transform="translate(-34.99 -25.97)"/><path class="cls-6" d="M128.54,262.22,76,298.35a.67.67,0,0,1-1-.18h0a.68.68,0,0,1,.17-.95l52.53-36.13a.68.68,0,0,1,1,.17h0A.69.69,0,0,1,128.54,262.22Z" transform="translate(-34.99 -25.97)"/><path class="cls-6" d="M130.59,265.21,78.07,301.34a.7.7,0,0,1-1-.18h0a.69.69,0,0,1,.18-1l52.52-36.14a.7.7,0,0,1,1,.18h0A.7.7,0,0,1,130.59,265.21Z" transform="translate(-34.99 -25.97)"/><path class="cls-6" d="M132.72,268.3,80.19,304.43a.69.69,0,0,1-1-.18h0a.69.69,0,0,1,.17-1l52.53-36.13a.69.69,0,0,1,.95.18h0A.69.69,0,0,1,132.72,268.3Z" transform="translate(-34.99 -25.97)"/><path class="cls-6" d="M134.77,271.28,82.25,307.41a.69.69,0,0,1-1-.17h0a.7.7,0,0,1,.18-1L134,270.15a.68.68,0,0,1,1,.18h0A.69.69,0,0,1,134.77,271.28Z" transform="translate(-34.99 -25.97)"/><path class="cls-6" d="M101.84,223.41,49.32,259.54a.69.69,0,0,1-1-.17h0a.69.69,0,0,1,.18-1l52.52-36.13a.68.68,0,0,1,1,.18h0A.69.69,0,0,1,101.84,223.41Z" transform="translate(-34.99 -25.97)"/><path class="cls-6" d="M104.28,227,51.76,263.1a.69.69,0,0,1-.95-.18h0a.69.69,0,0,1,.17-1l52.52-36.13a.7.7,0,0,1,1,.18h0A.68.68,0,0,1,104.28,227Z" transform="translate(-34.99 -25.97)"/><path class="cls-6" d="M106.52,230.21,54,266.34a.67.67,0,0,1-1-.18h0a.68.68,0,0,1,.17-1l52.53-36.13a.68.68,0,0,1,1,.17h0A.69.69,0,0,1,106.52,230.21Z" transform="translate(-34.99 -25.97)"/><path class="cls-6" d="M112.22,238.5,59.7,274.63a.68.68,0,0,1-1-.18h0a.67.67,0,0,1,.18-.95l52.52-36.13a.69.69,0,0,1,1,.17h0A.7.7,0,0,1,112.22,238.5Z" transform="translate(-34.99 -25.97)"/><path class="cls-6" d="M114.66,242.05,62.14,278.18a.69.69,0,0,1-1-.17h0a.7.7,0,0,1,.18-1l52.52-36.13a.68.68,0,0,1,1,.18h0A.68.68,0,0,1,114.66,242.05Z" transform="translate(-34.99 -25.97)"/><path class="cls-6" d="M116.89,245.3,64.37,281.43a.69.69,0,0,1-1-.18h0a.69.69,0,0,1,.17-1l52.52-36.13a.7.7,0,0,1,1,.18h0A.68.68,0,0,1,116.89,245.3Z" transform="translate(-34.99 -25.97)"/><rect class="cls-5" x="101.49" y="187.71" width="76.06" height="107.81" rx="4.49" transform="translate(-165.89 146.96) rotate(-45.74)"/><path class="cls-6" d="M134.25,192,89.76,237.63a.68.68,0,0,1-1,0h0a.69.69,0,0,1,0-1L133.26,191a.7.7,0,0,1,1,0h0A.69.69,0,0,1,134.25,192Z" transform="translate(-34.99 -25.97)"/><path class="cls-6" d="M162.9,219.89l-44.49,45.66a.68.68,0,0,1-1,0h0a.69.69,0,0,1,0-1l44.49-45.66a.69.69,0,0,1,1,0h0A.69.69,0,0,1,162.9,219.89Z" transform="translate(-34.99 -25.97)"/><path class="cls-6" d="M168.21,225.06l-44.49,45.66a.68.68,0,0,1-1,0h0a.68.68,0,0,1,0-1l44.49-45.66a.68.68,0,0,1,1,0h0A.68.68,0,0,1,168.21,225.06Z" transform="translate(-34.99 -25.97)"/><path class="cls-6" d="M173.4,230.12l-44.49,45.66a.68.68,0,0,1-1,0h0a.69.69,0,0,1,0-1l44.49-45.66a.69.69,0,0,1,1,0h0A.68.68,0,0,1,173.4,230.12Z" transform="translate(-34.99 -25.97)"/><path class="cls-6" d="M176.09,232.74,131.6,278.4a.68.68,0,0,1-1,0h0a.68.68,0,0,1,0-1l44.48-45.66a.69.69,0,0,1,1,0h0A.69.69,0,0,1,176.09,232.74Z" transform="translate(-34.99 -25.97)"/><path class="cls-6" d="M178.69,235.27,134.2,280.93a.69.69,0,0,1-1,0h0a.69.69,0,0,1,0-1l44.49-45.66a.68.68,0,0,1,1,0h0A.69.69,0,0,1,178.69,235.27Z" transform="translate(-34.99 -25.97)"/><path class="cls-6" d="M137.07,194.72,92.58,240.38a.68.68,0,0,1-1,0h0a.68.68,0,0,1,0-1l44.48-45.66a.7.7,0,0,1,1,0h0A.69.69,0,0,1,137.07,194.72Z" transform="translate(-34.99 -25.97)"/><path class="cls-6" d="M140.16,197.73,95.67,243.39a.68.68,0,0,1-1,0h0a.69.69,0,0,1,0-1l44.49-45.66a.69.69,0,0,1,1,0h0A.69.69,0,0,1,140.16,197.73Z" transform="translate(-34.99 -25.97)"/><path class="cls-6" d="M143,200.48,98.49,246.14a.68.68,0,0,1-1,0h0a.69.69,0,0,1,0-1L142,199.52a.69.69,0,0,1,1,0h0A.69.69,0,0,1,143,200.48Z" transform="translate(-34.99 -25.97)"/><path class="cls-6" d="M150.19,207.5,105.7,253.16a.69.69,0,0,1-1,0h0a.69.69,0,0,1,0-1l44.49-45.66a.68.68,0,0,1,1,0h0A.69.69,0,0,1,150.19,207.5Z" transform="translate(-34.99 -25.97)"/><path class="cls-6" d="M153.27,210.51l-44.48,45.66a.69.69,0,0,1-1,0h0a.69.69,0,0,1,0-1l44.49-45.66a.68.68,0,0,1,1,0h0A.68.68,0,0,1,153.27,210.51Z" transform="translate(-34.99 -25.97)"/><path class="cls-6" d="M156.09,213.26l-44.48,45.66a.69.69,0,0,1-1,0h0a.69.69,0,0,1,0-1l44.49-45.66a.68.68,0,0,1,1,0h0A.68.68,0,0,1,156.09,213.26Z" transform="translate(-34.99 -25.97)"/><rect class="cls-5" x="58.8" y="193.57" width="76.06" height="107.81" rx="4.49" transform="matrix(0.99, -0.14, 0.14, 0.99, -68.96, -9.82)"/><path class="cls-6" d="M123,204.94l-63.11,9a.7.7,0,0,1-.78-.58h0a.69.69,0,0,1,.59-.78l63.11-9a.7.7,0,0,1,.78.58h0A.69.69,0,0,1,123,204.94Z" transform="translate(-34.99 -25.97)"/><path class="cls-6" d="M128.61,244.54l-63.11,9a.69.69,0,0,1-.78-.58h0a.69.69,0,0,1,.58-.78l63.12-9a.69.69,0,0,1,.77.58h0A.68.68,0,0,1,128.61,244.54Z" transform="translate(-34.99 -25.97)"/><path class="cls-6" d="M129.13,248.17l-63.11,9a.69.69,0,0,1-.78-.58h0a.69.69,0,0,1,.58-.78l63.11-9a.69.69,0,0,1,.78.58h0A.68.68,0,0,1,129.13,248.17Z" transform="translate(-34.99 -25.97)"/><path class="cls-6" d="M129.66,251.88l-63.11,9a.68.68,0,0,1-.78-.58h0a.68.68,0,0,1,.58-.78l63.11-9a.69.69,0,0,1,.78.59h0A.69.69,0,0,1,129.66,251.88Z" transform="translate(-34.99 -25.97)"/><path class="cls-6" d="M130.17,255.47l-63.11,9a.69.69,0,0,1-.78-.58h0a.69.69,0,0,1,.58-.78l63.12-9a.69.69,0,0,1,.77.58h0A.68.68,0,0,1,130.17,255.47Z" transform="translate(-34.99 -25.97)"/><path class="cls-6" d="M130.68,259.06l-63.11,9a.7.7,0,0,1-.78-.58h0a.69.69,0,0,1,.59-.78l63.11-9a.69.69,0,0,1,.77.58h0A.68.68,0,0,1,130.68,259.06Z" transform="translate(-34.99 -25.97)"/><path class="cls-6" d="M131.21,262.77l-63.11,9a.68.68,0,0,1-.78-.58h0a.69.69,0,0,1,.58-.78l63.12-9a.69.69,0,0,1,.77.58h0A.68.68,0,0,1,131.21,262.77Z" transform="translate(-34.99 -25.97)"/><path class="cls-6" d="M131.72,266.36l-63.11,9a.7.7,0,0,1-.78-.58h0a.69.69,0,0,1,.59-.78l63.11-9a.7.7,0,0,1,.78.58h0A.69.69,0,0,1,131.72,266.36Z" transform="translate(-34.99 -25.97)"/><path class="cls-6" d="M123.52,208.84l-63.11,9a.69.69,0,0,1-.78-.59h0a.69.69,0,0,1,.58-.77l63.12-9a.68.68,0,0,1,.77.58h0A.68.68,0,0,1,123.52,208.84Z" transform="translate(-34.99 -25.97)"/><path class="cls-6" d="M124.13,213.11l-63.11,9a.69.69,0,0,1-.78-.59h0a.69.69,0,0,1,.58-.77l63.11-9a.68.68,0,0,1,.78.58h0A.69.69,0,0,1,124.13,213.11Z" transform="translate(-34.99 -25.97)"/><path class="cls-6" d="M124.68,217l-63.11,9a.69.69,0,0,1-.77-.59h0a.69.69,0,0,1,.58-.78l63.11-9a.68.68,0,0,1,.78.58h0A.7.7,0,0,1,124.68,217Z" transform="translate(-34.99 -25.97)"/><path class="cls-6" d="M126.1,227,63,236a.69.69,0,0,1-.77-.59h0a.67.67,0,0,1,.58-.77l63.11-9a.68.68,0,0,1,.78.58h0A.7.7,0,0,1,126.1,227Z" transform="translate(-34.99 -25.97)"/><path class="cls-6" d="M126.71,231.24l-63.11,9a.7.7,0,0,1-.78-.59h0a.69.69,0,0,1,.59-.77l63.11-9a.68.68,0,0,1,.78.58h0A.7.7,0,0,1,126.71,231.24Z" transform="translate(-34.99 -25.97)"/><path class="cls-6" d="M127.27,235.14l-63.11,9a.68.68,0,0,1-.78-.58h0a.7.7,0,0,1,.58-.78l63.12-9a.69.69,0,0,1,.77.59h0A.69.69,0,0,1,127.27,235.14Z" transform="translate(-34.99 -25.97)"/><rect class="cls-21" x="121.52" y="172.05" width="76.06" height="107.81" rx="4.49" transform="translate(-99.69 38.04) rotate(-18.94)"/><path class="cls-6" d="M177.23,179.27,116.93,200a.69.69,0,0,1-.87-.43h0a.68.68,0,0,1,.42-.87L176.78,178a.7.7,0,0,1,.88.43h0A.69.69,0,0,1,177.23,179.27Z" transform="translate(-34.99 -25.97)"/><path class="cls-6" d="M190.21,217.11l-60.3,20.69a.69.69,0,0,1-.87-.43h0a.69.69,0,0,1,.43-.87l60.3-20.69a.68.68,0,0,1,.87.42h0A.7.7,0,0,1,190.21,217.11Z" transform="translate(-34.99 -25.97)"/><path class="cls-6" d="M191.4,220.58l-60.3,20.68a.67.67,0,0,1-.87-.42h0a.7.7,0,0,1,.43-.88L191,219.27a.69.69,0,0,1,.87.43h0A.7.7,0,0,1,191.4,220.58Z" transform="translate(-34.99 -25.97)"/><path class="cls-6" d="M192.62,224.12l-60.3,20.69a.69.69,0,0,1-.87-.43h0a.68.68,0,0,1,.42-.87l60.3-20.69a.7.7,0,0,1,.88.43h0A.69.69,0,0,1,192.62,224.12Z" transform="translate(-34.99 -25.97)"/><path class="cls-6" d="M193.8,227.55l-60.3,20.69a.7.7,0,0,1-.88-.43h0a.69.69,0,0,1,.43-.87l60.3-20.69a.69.69,0,0,1,.87.43h0A.68.68,0,0,1,193.8,227.55Z" transform="translate(-34.99 -25.97)"/><path class="cls-6" d="M195,231l-60.3,20.69a.69.69,0,0,1-.87-.43h0a.69.69,0,0,1,.43-.87l60.3-20.69a.69.69,0,0,1,.87.43h0A.69.69,0,0,1,195,231Z" transform="translate(-34.99 -25.97)"/><path class="cls-6" d="M196.19,234.53l-60.3,20.69a.69.69,0,0,1-.87-.43h0a.67.67,0,0,1,.42-.87l60.3-20.69a.69.69,0,0,1,.88.42h0A.7.7,0,0,1,196.19,234.53Z" transform="translate(-34.99 -25.97)"/><path class="cls-6" d="M197.36,238l-60.29,20.69a.7.7,0,0,1-.88-.43h0a.7.7,0,0,1,.43-.88l60.3-20.68a.67.67,0,0,1,.87.42h0A.69.69,0,0,1,197.36,238Z" transform="translate(-34.99 -25.97)"/><path class="cls-6" d="M178.51,183l-60.3,20.69a.69.69,0,0,1-.87-.43h0a.67.67,0,0,1,.42-.87l60.3-20.69a.69.69,0,0,1,.88.42h0A.7.7,0,0,1,178.51,183Z" transform="translate(-34.99 -25.97)"/><path class="cls-6" d="M179.91,187.08l-60.3,20.68a.69.69,0,0,1-.88-.42h0a.7.7,0,0,1,.43-.88l60.3-20.68a.67.67,0,0,1,.87.42h0A.69.69,0,0,1,179.91,187.08Z" transform="translate(-34.99 -25.97)"/><path class="cls-6" d="M181.19,190.8l-60.3,20.69a.7.7,0,0,1-.88-.43h0a.69.69,0,0,1,.43-.87l60.3-20.69a.69.69,0,0,1,.87.43h0A.68.68,0,0,1,181.19,190.8Z" transform="translate(-34.99 -25.97)"/><path class="cls-6" d="M184.45,200.32,124.15,221a.69.69,0,0,1-.87-.43h0a.69.69,0,0,1,.43-.87L184,199a.69.69,0,0,1,.88.42h0A.7.7,0,0,1,184.45,200.32Z" transform="translate(-34.99 -25.97)"/><path class="cls-6" d="M185.85,204.4l-60.3,20.69a.69.69,0,0,1-.87-.43h0a.68.68,0,0,1,.43-.87L185.4,203.1a.69.69,0,0,1,.88.42h0A.7.7,0,0,1,185.85,204.4Z" transform="translate(-34.99 -25.97)"/><path class="cls-6" d="M187.13,208.12l-60.3,20.69a.69.69,0,0,1-.87-.43h0a.67.67,0,0,1,.42-.87l60.3-20.69a.7.7,0,0,1,.88.43h0A.69.69,0,0,1,187.13,208.12Z" transform="translate(-34.99 -25.97)"/><rect class="cls-21" x="57.09" y="215.98" width="76.06" height="107.81" rx="4.49" transform="translate(-171.2 75.47) rotate(-34.52)"/><path class="cls-6" d="M99.61,220.17,47.09,256.3a.69.69,0,0,1-1-.18h0a.67.67,0,0,1,.18-1L98.83,219a.68.68,0,0,1,1,.17h0A.69.69,0,0,1,99.61,220.17Z" transform="translate(-34.99 -25.97)"/><path class="cls-6" d="M122.28,253.12,69.76,289.25a.69.69,0,0,1-1-.17h0a.68.68,0,0,1,.18-1L121.5,252a.69.69,0,0,1,1,.18h0A.69.69,0,0,1,122.28,253.12Z" transform="translate(-34.99 -25.97)"/><path class="cls-6" d="M124.36,256.14,71.83,292.28a.69.69,0,0,1-1-.18h0a.69.69,0,0,1,.17-1L123.58,255a.69.69,0,0,1,1,.18h0A.68.68,0,0,1,124.36,256.14Z" transform="translate(-34.99 -25.97)"/><path class="cls-6" d="M126.48,259.23,74,295.36a.69.69,0,0,1-1-.17h0a.7.7,0,0,1,.18-1L125.7,258.1a.69.69,0,0,1,1,.18h0A.69.69,0,0,1,126.48,259.23Z" transform="translate(-34.99 -25.97)"/><path class="cls-6" d="M128.54,262.22,76,298.35a.67.67,0,0,1-1-.18h0a.68.68,0,0,1,.17-.95l52.53-36.13a.68.68,0,0,1,1,.17h0A.69.69,0,0,1,128.54,262.22Z" transform="translate(-34.99 -25.97)"/><path class="cls-6" d="M130.59,265.21,78.07,301.34a.7.7,0,0,1-1-.18h0a.69.69,0,0,1,.18-1l52.52-36.14a.7.7,0,0,1,1,.18h0A.7.7,0,0,1,130.59,265.21Z" transform="translate(-34.99 -25.97)"/><path class="cls-6" d="M132.72,268.3,80.19,304.43a.69.69,0,0,1-1-.18h0a.69.69,0,0,1,.17-1l52.53-36.13a.69.69,0,0,1,.95.18h0A.69.69,0,0,1,132.72,268.3Z" transform="translate(-34.99 -25.97)"/><path class="cls-6" d="M134.77,271.28,82.25,307.41a.69.69,0,0,1-1-.17h0a.7.7,0,0,1,.18-1L134,270.15a.68.68,0,0,1,1,.18h0A.69.69,0,0,1,134.77,271.28Z" transform="translate(-34.99 -25.97)"/><path class="cls-6" d="M101.84,223.41,49.32,259.54a.69.69,0,0,1-1-.17h0a.69.69,0,0,1,.18-1l52.52-36.13a.68.68,0,0,1,1,.18h0A.69.69,0,0,1,101.84,223.41Z" transform="translate(-34.99 -25.97)"/><path class="cls-6" d="M104.28,227,51.76,263.1a.69.69,0,0,1-.95-.18h0a.69.69,0,0,1,.17-1l52.52-36.13a.7.7,0,0,1,1,.18h0A.68.68,0,0,1,104.28,227Z" transform="translate(-34.99 -25.97)"/><path class="cls-6" d="M106.52,230.21,54,266.34a.67.67,0,0,1-1-.18h0a.68.68,0,0,1,.17-1l52.53-36.13a.68.68,0,0,1,1,.17h0A.69.69,0,0,1,106.52,230.21Z" transform="translate(-34.99 -25.97)"/><path class="cls-6" d="M112.22,238.5,59.7,274.63a.68.68,0,0,1-1-.18h0a.67.67,0,0,1,.18-.95l52.52-36.13a.69.69,0,0,1,1,.17h0A.7.7,0,0,1,112.22,238.5Z" transform="translate(-34.99 -25.97)"/><path class="cls-6" d="M114.66,242.05,62.14,278.18a.69.69,0,0,1-1-.17h0a.7.7,0,0,1,.18-1l52.52-36.13a.68.68,0,0,1,1,.18h0A.68.68,0,0,1,114.66,242.05Z" transform="translate(-34.99 -25.97)"/><path class="cls-6" d="M116.89,245.3,64.37,281.43a.69.69,0,0,1-1-.18h0a.69.69,0,0,1,.17-1l52.52-36.13a.7.7,0,0,1,1,.18h0A.68.68,0,0,1,116.89,245.3Z" transform="translate(-34.99 -25.97)"/><path class="cls-8" d="M203.11,253.28l-46.81,48a4.49,4.49,0,0,1-6.35.08l-70.78-69a4.49,4.49,0,0,1-.08-6.35l46.81-48a4.49,4.49,0,0,1,6.35-.08l70.78,69A4.49,4.49,0,0,1,203.11,253.28Z" transform="translate(-34.99 -25.97)"/><rect class="cls-5" x="101.49" y="187.71" width="76.06" height="107.81" rx="4.49" transform="translate(-165.89 146.96) rotate(-45.74)"/><path class="cls-6" d="M134.25,192,89.76,237.63a.68.68,0,0,1-1,0h0a.69.69,0,0,1,0-1L133.26,191a.7.7,0,0,1,1,0h0A.69.69,0,0,1,134.25,192Z" transform="translate(-34.99 -25.97)"/><path class="cls-6" d="M162.9,219.89l-44.49,45.66a.68.68,0,0,1-1,0h0a.69.69,0,0,1,0-1l44.49-45.66a.69.69,0,0,1,1,0h0A.69.69,0,0,1,162.9,219.89Z" transform="translate(-34.99 -25.97)"/><path class="cls-6" d="M168.21,225.06l-44.49,45.66a.68.68,0,0,1-1,0h0a.68.68,0,0,1,0-1l44.49-45.66a.68.68,0,0,1,1,0h0A.68.68,0,0,1,168.21,225.06Z" transform="translate(-34.99 -25.97)"/><path class="cls-6" d="M173.4,230.12l-44.49,45.66a.68.68,0,0,1-1,0h0a.69.69,0,0,1,0-1l44.49-45.66a.69.69,0,0,1,1,0h0A.68.68,0,0,1,173.4,230.12Z" transform="translate(-34.99 -25.97)"/><path class="cls-6" d="M176.09,232.74,131.6,278.4a.68.68,0,0,1-1,0h0a.68.68,0,0,1,0-1l44.48-45.66a.69.69,0,0,1,1,0h0A.69.69,0,0,1,176.09,232.74Z" transform="translate(-34.99 -25.97)"/><path class="cls-6" d="M178.69,235.27,134.2,280.93a.69.69,0,0,1-1,0h0a.69.69,0,0,1,0-1l44.49-45.66a.68.68,0,0,1,1,0h0A.69.69,0,0,1,178.69,235.27Z" transform="translate(-34.99 -25.97)"/><path class="cls-6" d="M137.07,194.72,92.58,240.38a.68.68,0,0,1-1,0h0a.68.68,0,0,1,0-1l44.48-45.66a.7.7,0,0,1,1,0h0A.69.69,0,0,1,137.07,194.72Z" transform="translate(-34.99 -25.97)"/><path class="cls-6" d="M140.16,197.73,95.67,243.39a.68.68,0,0,1-1,0h0a.69.69,0,0,1,0-1l44.49-45.66a.69.69,0,0,1,1,0h0A.69.69,0,0,1,140.16,197.73Z" transform="translate(-34.99 -25.97)"/><path class="cls-6" d="M143,200.48,98.49,246.14a.68.68,0,0,1-1,0h0a.69.69,0,0,1,0-1L142,199.52a.69.69,0,0,1,1,0h0A.69.69,0,0,1,143,200.48Z" transform="translate(-34.99 -25.97)"/><path class="cls-6" d="M150.19,207.5,105.7,253.16a.69.69,0,0,1-1,0h0a.69.69,0,0,1,0-1l44.49-45.66a.68.68,0,0,1,1,0h0A.69.69,0,0,1,150.19,207.5Z" transform="translate(-34.99 -25.97)"/><path class="cls-6" d="M153.27,210.51l-44.48,45.66a.69.69,0,0,1-1,0h0a.69.69,0,0,1,0-1l44.49-45.66a.68.68,0,0,1,1,0h0A.68.68,0,0,1,153.27,210.51Z" transform="translate(-34.99 -25.97)"/><path class="cls-6" d="M156.09,213.26l-44.48,45.66a.69.69,0,0,1-1,0h0a.69.69,0,0,1,0-1l44.49-45.66a.68.68,0,0,1,1,0h0A.68.68,0,0,1,156.09,213.26Z" transform="translate(-34.99 -25.97)"/><rect class="cls-8" x="60.81" y="192.15" width="76.06" height="107.81" rx="4.49" transform="translate(-68.74 -9.55) rotate(-8.12)"/><rect class="cls-5" x="58.8" y="193.57" width="76.06" height="107.81" rx="4.49" transform="matrix(0.99, -0.14, 0.14, 0.99, -68.96, -9.82)"/><path class="cls-6" d="M123,204.94l-63.11,9a.7.7,0,0,1-.78-.58h0a.69.69,0,0,1,.59-.78l63.11-9a.7.7,0,0,1,.78.58h0A.69.69,0,0,1,123,204.94Z" transform="translate(-34.99 -25.97)"/><path class="cls-6" d="M128.61,244.54l-63.11,9a.69.69,0,0,1-.78-.58h0a.69.69,0,0,1,.58-.78l63.12-9a.69.69,0,0,1,.77.58h0A.68.68,0,0,1,128.61,244.54Z" transform="translate(-34.99 -25.97)"/><path class="cls-6" d="M129.13,248.17l-63.11,9a.69.69,0,0,1-.78-.58h0a.69.69,0,0,1,.58-.78l63.11-9a.69.69,0,0,1,.78.58h0A.68.68,0,0,1,129.13,248.17Z" transform="translate(-34.99 -25.97)"/><path class="cls-6" d="M129.66,251.88l-63.11,9a.68.68,0,0,1-.78-.58h0a.68.68,0,0,1,.58-.78l63.11-9a.69.69,0,0,1,.78.59h0A.69.69,0,0,1,129.66,251.88Z" transform="translate(-34.99 -25.97)"/><path class="cls-6" d="M130.17,255.47l-63.11,9a.69.69,0,0,1-.78-.58h0a.69.69,0,0,1,.58-.78l63.12-9a.69.69,0,0,1,.77.58h0A.68.68,0,0,1,130.17,255.47Z" transform="translate(-34.99 -25.97)"/><path class="cls-6" d="M130.68,259.06l-63.11,9a.7.7,0,0,1-.78-.58h0a.69.69,0,0,1,.59-.78l63.11-9a.69.69,0,0,1,.77.58h0A.68.68,0,0,1,130.68,259.06Z" transform="translate(-34.99 -25.97)"/><path class="cls-6" d="M131.21,262.77l-63.11,9a.68.68,0,0,1-.78-.58h0a.69.69,0,0,1,.58-.78l63.12-9a.69.69,0,0,1,.77.58h0A.68.68,0,0,1,131.21,262.77Z" transform="translate(-34.99 -25.97)"/><path class="cls-6" d="M131.72,266.36l-63.11,9a.7.7,0,0,1-.78-.58h0a.69.69,0,0,1,.59-.78l63.11-9a.7.7,0,0,1,.78.58h0A.69.69,0,0,1,131.72,266.36Z" transform="translate(-34.99 -25.97)"/><path class="cls-6" d="M123.52,208.84l-63.11,9a.69.69,0,0,1-.78-.59h0a.69.69,0,0,1,.58-.77l63.12-9a.68.68,0,0,1,.77.58h0A.68.68,0,0,1,123.52,208.84Z" transform="translate(-34.99 -25.97)"/><path class="cls-6" d="M124.13,213.11l-63.11,9a.69.69,0,0,1-.78-.59h0a.69.69,0,0,1,.58-.77l63.11-9a.68.68,0,0,1,.78.58h0A.69.69,0,0,1,124.13,213.11Z" transform="translate(-34.99 -25.97)"/><path class="cls-6" d="M124.68,217l-63.11,9a.69.69,0,0,1-.77-.59h0a.69.69,0,0,1,.58-.78l63.11-9a.68.68,0,0,1,.78.58h0A.7.7,0,0,1,124.68,217Z" transform="translate(-34.99 -25.97)"/><path class="cls-6" d="M126.1,227,63,236a.69.69,0,0,1-.77-.59h0a.67.67,0,0,1,.58-.77l63.11-9a.68.68,0,0,1,.78.58h0A.7.7,0,0,1,126.1,227Z" transform="translate(-34.99 -25.97)"/><path class="cls-6" d="M126.71,231.24l-63.11,9a.7.7,0,0,1-.78-.59h0a.69.69,0,0,1,.59-.77l63.11-9a.68.68,0,0,1,.78.58h0A.7.7,0,0,1,126.71,231.24Z" transform="translate(-34.99 -25.97)"/><path class="cls-6" d="M127.27,235.14l-63.11,9a.68.68,0,0,1-.78-.58h0a.7.7,0,0,1,.58-.78l63.12-9a.69.69,0,0,1,.77.59h0A.69.69,0,0,1,127.27,235.14Z" transform="translate(-34.99 -25.97)"/><path class="cls-22" d="M196.87,306l19.71-13.92c.51-.36,1-.73,1.48-1.13l12.06-9.77h0l8.17-6.63a.91.91,0,0,0,1.41-1.15l.15-.12,1.32-.61h0l6.33-3a21.5,21.5,0,0,1,2-5.71,21,21,0,0,1,2.89-4.24,1.17,1.17,0,0,0,1.12-.18,1.19,1.19,0,0,0,.22-1.67l-1,.73-4.17,3.18a1.24,1.24,0,1,1-.39-.51l3.23-2.46.94-.73.95-.72a1.19,1.19,0,0,0-2.14.77,24.87,24.87,0,0,1-5.05,1.61,24.24,24.24,0,0,1-5.83.48l-4.43,5.44h0l-1,1.29,0-.06a.93.93,0,1,0-1.48,1.13l0,.07-6.09,4.27-2.51,1.76h0l-12.93,9.06c-.33.23-.66.48-1,.74l-18.77,15.77a4,4,0,1,0,4.79,6.29Z" transform="translate(-34.99 -25.97)"/><path class="cls-23" d="M190.3,303.6h0a4,4,0,0,1,.75-5.54l18.77-15.77c.32-.26.64-.51,1-.74l24-16.8,4.79,6.29L217,289.3c-.49.39-1,.77-1.49,1.13l-19.71,13.92A4,4,0,0,1,190.3,303.6Z" transform="translate(-34.99 -25.97)"/><path class="cls-24" d="M191.73,300.84a.42.42,0,0,1,.05-.43c7.81-10,31.41-26.11,31.64-26.27a.41.41,0,0,1,.57.11.41.41,0,0,1-.11.57c-.23.16-23.72,16.16-31.46,26.1a.41.41,0,0,1-.57.07A.44.44,0,0,1,191.73,300.84Z" transform="translate(-34.99 -25.97)"/><path class="cls-25" d="M248.45,262.34a21,21,0,0,1,2.89-4.24,1.19,1.19,0,0,0,1.34-1.85l-.94.72h0l-4.18,3.19a1.24,1.24,0,1,1-1.89-.52,1.23,1.23,0,0,1,1.5,0l3.23-2.46.95-.73.94-.72a1.19,1.19,0,0,0-1.67-.22,1.15,1.15,0,0,0-.46,1,25.29,25.29,0,0,1-5,1.61,24.32,24.32,0,0,1-5.84.48l-6.38,7.84,4.47,5.87,9.11-4.26A21.5,21.5,0,0,1,248.45,262.34Z" transform="translate(-34.99 -25.97)"/><path class="cls-25" d="M248.45,262.34a21,21,0,0,1,2.89-4.24,1.19,1.19,0,0,0,1.34-1.85l-.94.72h0l-4.18,3.19a1.24,1.24,0,1,1-1.89-.52,1.23,1.23,0,0,1,1.5,0l3.23-2.46.95-.73.94-.72a1.19,1.19,0,0,0-1.67-.22,1.15,1.15,0,0,0-.46,1,25.29,25.29,0,0,1-5,1.61,24.32,24.32,0,0,1-5.84.48l-6.38,7.84,4.47,5.87,9.11-4.26A21.5,21.5,0,0,1,248.45,262.34Z" transform="translate(-34.99 -25.97)"/><path class="cls-26" d="M234.83,264c-.64.81-1.29,1.61-1.94,2.41l4.45,5.88,2.81-1.3Z" transform="translate(-34.99 -25.97)"/><path class="cls-26" d="M237.17,272.81l-4.9-6.43a.93.93,0,0,1,.18-1.3h0a.93.93,0,0,1,1.3.18l4.89,6.43a.92.92,0,0,1-.17,1.3h0A.93.93,0,0,1,237.17,272.81Z" transform="translate(-34.99 -25.97)"/><path class="cls-26" d="M223.73,272.48l5.36,7,9.28-7.52-4.86-6.37Z" transform="translate(-34.99 -25.97)"/><path class="cls-27" d="M224.84,273.57a.42.42,0,0,1,.13-.51l7.91-5.62a.41.41,0,0,1,.48.67l-7.91,5.62a.4.4,0,0,1-.57-.1Z" transform="translate(-34.99 -25.97)"/></g></g></svg>